<?xml version="1.0" encoding="UTF-8" standalone="no"?>
<!-- Created with Inkscape (http://www.inkscape.org/) -->

<svg
   xmlns:dc="http://purl.org/dc/elements/1.1/"
   xmlns:cc="http://creativecommons.org/ns#"
   xmlns:rdf="http://www.w3.org/1999/02/22-rdf-syntax-ns#"
   xmlns:svg="http://www.w3.org/2000/svg"
   xmlns="http://www.w3.org/2000/svg"
   xmlns:sodipodi="http://sodipodi.sourceforge.net/DTD/sodipodi-0.dtd"
   xmlns:inkscape="http://www.inkscape.org/namespaces/inkscape"
   width="199.59375"
   height="71.4375"
   id="svg3084"
   version="1.1"
   inkscape:version="0.48.0 r9654"
   sodipodi:docname="27c3b.svg"
   inkscape:export-filename="/home/prusnak/work/scm/laserdisplay/svglaser/templates/template2.svg.png"
   inkscape:export-xdpi="200"
   inkscape:export-ydpi="200">
  <defs
     id="defs3086">
    <inkscape:perspective
       sodipodi:type="inkscape:persp3d"
       inkscape:vp_x="0 : 526.18109 : 1"
       inkscape:vp_y="0 : 1000 : 0"
       inkscape:vp_z="744.09448 : 526.18109 : 1"
       inkscape:persp3d-origin="372.04724 : 350.78739 : 1"
       id="perspective3092" />
    <inkscape:perspective
       id="perspective3102"
       inkscape:persp3d-origin="0.5 : 0.33333333 : 1"
       inkscape:vp_z="1 : 0.5 : 1"
       inkscape:vp_y="0 : 1000 : 0"
       inkscape:vp_x="0 : 0.5 : 1"
       sodipodi:type="inkscape:persp3d" />
  </defs>
  <sodipodi:namedview
     id="base"
     pagecolor="#ffffff"
     bordercolor="#666666"
     borderopacity="1.0"
     inkscape:pageopacity="0.0"
     inkscape:pageshadow="2"
     inkscape:zoom="1.4"
     inkscape:cx="239.88312"
     inkscape:cy="-7.9559772"
     inkscape:document-units="px"
     inkscape:current-layer="svg3084"
     showgrid="false"
     inkscape:window-width="1004"
     inkscape:window-height="685"
     inkscape:window-x="16"
     inkscape:window-y="25"
     inkscape:window-maximized="0"
     fit-margin-top="0"
     fit-margin-left="0"
     fit-margin-right="0"
     fit-margin-bottom="0" />
  <metadata
     id="metadata3089">
    <rdf:RDF>
      <cc:Work
         rdf:about="">
        <dc:format>image/svg+xml</dc:format>
        <dc:type
           rdf:resource="http://purl.org/dc/dcmitype/StillImage" />
        <dc:title />
      </cc:Work>
    </rdf:RDF>
  </metadata>
  <path
     id="path3078"
     style="fill:none;stroke:#000000;stroke-width:1;stroke-linecap:butt;stroke-linejoin:miter;stroke-miterlimit:4;stroke-opacity:1;stroke-dasharray:none"
     d="m 0.5,0.51497 0,19.71831 26.76056,0 0,5.6338 -26.76056,0 0,45.07042 71.83098,0 0,-19.71831 -50.70423,0 0,-5.6338 56.33803,0 0,25.35211 19.71831,0 0,-70.42253 -46.47887,0 0,19.71831 26.76056,0 0,5.6338 -30.98592,0 0,-25.35211 -46.47886,0 z m 101.40845,0 0,70.42253 97.18309,0 0,-70.42253 -45.07042,0 0,19.71831 25.35211,0 0,5.6338 -25.35211,0 0,19.71831 25.35211,0 0,5.6338 -57.74647,0 0,-30.98591 5.6338,0 0,25.35211 21.12676,0 0,-45.07042 -46.47887,0 z"
     inkscape:connector-curvature="0" />
</svg>
