<?xml version="1.0" encoding="UTF-8" standalone="no"?>
<svg
   xmlns:dc="http://purl.org/dc/elements/1.1/"
   xmlns:cc="http://creativecommons.org/ns#"
   xmlns:rdf="http://www.w3.org/1999/02/22-rdf-syntax-ns#"
   xmlns:svg="http://www.w3.org/2000/svg"
   xmlns="http://www.w3.org/2000/svg"
   xmlns:sodipodi="http://sodipodi.sourceforge.net/DTD/sodipodi-0.dtd"
   xmlns:inkscape="http://www.inkscape.org/namespaces/inkscape"
   xml:space="preserve"
   height="78.96875"
   width="78.96875"
   version="1.1"
   id="svg2"
   inkscape:version="0.48.0 r9654"
   sodipodi:docname="template4.svg"
   inkscape:export-filename="/home/prusnak/work/scm/laserdisplay/svglaser/templates/template4.svg.png"
   inkscape:export-xdpi="200"
   inkscape:export-ydpi="200"><metadata
   id="metadata78"><rdf:RDF><cc:Work
       rdf:about=""><dc:format>image/svg+xml</dc:format><dc:type
         rdf:resource="http://purl.org/dc/dcmitype/StillImage" /><dc:title /></cc:Work></rdf:RDF></metadata><sodipodi:namedview
   pagecolor="#ffffff"
   bordercolor="#666666"
   borderopacity="1"
   objecttolerance="10"
   gridtolerance="10"
   guidetolerance="10"
   inkscape:pageopacity="0"
   inkscape:pageshadow="2"
   inkscape:window-width="1280"
   inkscape:window-height="930"
   id="namedview76"
   showgrid="false"
   inkscape:zoom="4"
   inkscape:cx="80.948728"
   inkscape:cy="49.824619"
   inkscape:window-x="0"
   inkscape:window-y="25"
   inkscape:window-maximized="1"
   inkscape:current-layer="svg2"
   inkscape:snap-bbox="true"
   inkscape:snap-global="true"
   fit-margin-top="0"
   fit-margin-left="0"
   fit-margin-right="0"
   fit-margin-bottom="0" />
<defs
   id="defs4"><inkscape:perspective
   sodipodi:type="inkscape:persp3d"
   inkscape:vp_x="0 : 48 : 1"
   inkscape:vp_y="0 : 1000 : 0"
   inkscape:vp_z="400 : 48 : 1"
   inkscape:persp3d-origin="200 : 32 : 1"
   id="perspective80" />



































</defs>

<path
   id="path3237"
   style="fill:none;stroke:#000000;stroke-width:1"
   d="m 20.266406,45.389531 c -1.816875,0 -3.293437,-1.4775 -3.293437,-3.293437 0,-1.815938 1.476562,-3.294375 3.293437,-3.294375 1.816875,0 3.294375,1.478437 3.294375,3.294375 0,1.815937 -1.4775,3.293437 -3.294375,3.293437 M 39.483657,0.5036459 c -21.494492,0 -38.9800111,17.4882061 -38.9800111,38.9826971 0,10.412046 4.0546519,20.200712 11.4169751,27.563036 7.363668,7.362323 17.15099,11.416975 27.563036,11.416975 21.494491,0 38.982697,-17.486862 38.982697,-38.980011 C 78.465064,17.990508 60.978148,0.5036459 39.483657,0.5036459 m -0.09362,68.7517171 c -5.945327,0 -11.681286,-1.744733 -16.588197,-5.045286 l -0.998709,-0.670218 0.765276,-0.92531 c 1.473999,-1.786847 1.350062,-4.367848 -0.289986,-6.007897 -0.844692,-0.844691 -1.96854,-1.310354 -3.163381,-1.310354 -1.037214,0 -2.046752,0.362182 -2.843313,1.019165 l -0.926513,0.764072 -0.670218,-0.996302 C 6.7611269,44.317718 8.303711,28.489984 18.344949,18.44995 22.54434,14.248152 27.835091,11.426498 33.64445,10.288211 l 1.179198,-0.229824 0.115514,1.194841 c 0.220197,2.304251 2.13459,4.041764 4.452076,4.041764 2.317487,0 4.23188,-1.737513 4.45328,-4.041764 l 0.115513,-1.194841 1.177996,0.229824 c 5.806952,1.138287 11.098906,3.959941 15.299501,8.159332 10.040034,10.041238 11.583822,25.870175 3.668751,37.63569 l -0.670218,0.996302 -0.92531,-0.765276 c -0.798967,-0.656982 -1.807302,-1.017961 -2.845719,-1.017961 -1.194841,0 -2.317486,0.46446 -3.163381,1.309151 -1.638845,1.640049 -1.762781,4.222253 -0.289986,6.0091 l 0.764072,0.92531 -0.996302,0.670218 c -4.90691,3.300553 -10.644073,5.045286 -16.5894,5.045286 m -7.130784,-26.72605 14.281498,0 0,-6.001126 -14.281498,0 0,6.001126 z M 24.126094,30.113281 c -1.816875,0 -3.294375,-1.4775 -3.294375,-3.293437 0,-1.815938 1.4775,-3.294375 3.294375,-3.294375 1.815937,0 3.293437,1.478437 3.293437,3.294375 0,1.815937 -1.4775,3.293437 -3.293437,3.293437 m 34.387656,15.27625 c -1.815937,0 -3.294375,-1.4775 -3.294375,-3.293437 0,-1.815938 1.478438,-3.294375 3.294375,-3.294375 1.816875,0 3.294375,1.478437 3.294375,3.294375 0,1.815937 -1.4775,3.293437 -3.294375,3.293437 m -26.905937,15.1875 c -1.815938,0 -3.292501,-1.4775 -3.292501,-3.293437 0,-1.815938 1.476563,-3.294375 3.292501,-3.294375 1.816875,0 3.294374,1.478437 3.294374,3.294375 0,1.815937 -1.477499,3.293437 -3.294374,3.293437 m 23.043124,-30.46375 c -1.816874,0 -3.294374,-1.4775 -3.294374,-3.293437 0,-1.815938 1.4775,-3.294375 3.294374,-3.294375 1.815938,0 3.292501,1.478437 3.292501,3.294375 0,1.815937 -1.476563,3.293437 -3.292501,3.293437 m -7.474843,30.46375 c -1.816875,0 -3.294375,-1.4775 -3.294375,-3.293437 0,-1.815938 1.4775,-3.294375 3.294375,-3.294375 1.815937,0 3.293437,1.478437 3.293437,3.294375 0,1.815937 -1.4775,3.293437 -3.293437,3.293437 m -7.775,-30.46375 c -1.816875,0 -3.294375,-1.4775 -3.294375,-3.293437 0,-1.815938 1.4775,-3.294375 3.294375,-3.294375 1.815937,0 3.293437,1.478437 3.293437,3.294375 0,1.815937 -1.4775,3.293437 -3.293437,3.293437"
   inkscape:connector-curvature="0" /></svg>