<?xml version="1.0" encoding="UTF-8" standalone="no"?>
<svg
   xmlns:dc="http://purl.org/dc/elements/1.1/"
   xmlns:cc="http://creativecommons.org/ns#"
   xmlns:rdf="http://www.w3.org/1999/02/22-rdf-syntax-ns#"
   xmlns:svg="http://www.w3.org/2000/svg"
   xmlns="http://www.w3.org/2000/svg"
   xmlns:sodipodi="http://sodipodi.sourceforge.net/DTD/sodipodi-0.dtd"
   xmlns:inkscape="http://www.inkscape.org/namespaces/inkscape"
   xml:space="preserve"
   height="78.96875"
   width="78.96875"
   version="1.1"
   id="svg2"
   inkscape:version="0.48.0 r9654"
   sodipodi:docname="brmlab2.svg"
   inkscape:export-filename="/home/prusnak/work/scm/laserdisplay/svglaser/templates/template4.svg.png"
   inkscape:export-xdpi="200"
   inkscape:export-ydpi="200"><defs
   id="defs2994" /><metadata
   id="metadata78"><rdf:RDF><cc:Work
       rdf:about=""><dc:format>image/svg+xml</dc:format><dc:type
         rdf:resource="http://purl.org/dc/dcmitype/StillImage" /><dc:title /></cc:Work></rdf:RDF></metadata><sodipodi:namedview
   pagecolor="#ffffff"
   bordercolor="#666666"
   borderopacity="1"
   objecttolerance="10"
   gridtolerance="10"
   guidetolerance="10"
   inkscape:pageopacity="0"
   inkscape:pageshadow="2"
   inkscape:window-width="1024"
   inkscape:window-height="689"
   id="namedview76"
   showgrid="false"
   inkscape:zoom="1"
   inkscape:cx="25.043829"
   inkscape:cy="5.6960585"
   inkscape:window-x="0"
   inkscape:window-y="25"
   inkscape:window-maximized="1"
   inkscape:current-layer="svg2"
   inkscape:snap-bbox="true"
   inkscape:snap-global="true"
   fit-margin-top="0"
   fit-margin-left="0"
   fit-margin-right="0"
   fit-margin-bottom="0" />
<path
   id="path3237"
   style="fill:none;stroke:#000000;stroke-width:1"
   d="m 20.26276,45.39193 c -1.816875,0 -3.293437,-1.4775 -3.293437,-3.29344 0,-1.81593 1.476562,-3.29437 3.293437,-3.29437 1.816875,0 3.294375,1.47844 3.294375,3.29437 0,1.81594 -1.4775,3.29344 -3.294375,3.29344 M 39.480011,0.50605 C 17.985519,0.50605 0.5,17.99425 0.5,39.48874 c 0,10.41205 4.0546519,20.20071 11.416975,27.56304 7.363668,7.36232 17.15099,11.41697 27.563036,11.41697 21.494491,0 38.982697,-17.48686 38.982697,-38.98001 C 78.461408,17.99291 60.974502,0.50605 39.480011,0.50605 m -0.09362,68.75171 c -5.945327,0 -11.681286,-1.74473 -16.588197,-5.04528 l -0.998709,-0.67022 0.765276,-0.92531 c 1.473999,-1.78685 1.350062,-4.36785 -0.289986,-6.0079 -0.844692,-0.84469 -1.96854,-1.31035 -3.163381,-1.31035 -1.037214,0 -2.046752,0.36218 -2.843313,1.01916 l -0.926513,0.76407 -0.670218,-0.9963 C 6.757481,44.32012 8.3000651,28.49238 18.341303,18.45235 c 4.199391,-4.2018 9.490142,-7.02345 15.299501,-8.16174 l 1.179198,-0.22982 0.115514,1.19484 c 0.220197,2.30425 2.13459,4.04176 4.452076,4.04176 2.317487,0 4.23188,-1.73751 4.45328,-4.04176 l 0.115513,-1.19484 1.177996,0.22982 c 5.806952,1.13829 11.098906,3.95994 15.299501,8.15933 10.040034,10.04124 11.583822,25.87018 3.668751,37.63569 l -0.670218,0.9963 -0.92531,-0.76527 c -0.798967,-0.65698 -1.807302,-1.01796 -2.845719,-1.01796 -1.194841,0 -2.317486,0.46446 -3.163381,1.30915 -1.638845,1.64005 -1.762781,4.22225 -0.289986,6.0091 l 0.764072,0.92531 -0.996302,0.67022 c -4.90691,3.30055 -10.644073,5.04528 -16.5894,5.04528 m -7.130784,-26.72605 14.281498,0 0,-6.00112 -14.281498,0 0,6.00112 z M 24.122448,30.11568 c -1.816875,0 -3.294375,-1.4775 -3.294375,-3.29344 0,-1.81593 1.4775,-3.29437 3.294375,-3.29437 1.815937,0 3.293437,1.47844 3.293437,3.29437 0,1.81594 -1.4775,3.29344 -3.293437,3.29344 m 34.387656,15.27625 c -1.815937,0 -3.294375,-1.4775 -3.294375,-3.29344 0,-1.81593 1.478438,-3.29437 3.294375,-3.29437 1.816875,0 3.294375,1.47844 3.294375,3.29437 0,1.81594 -1.4775,3.29344 -3.294375,3.29344 m -26.905937,15.1875 c -1.815938,0 -3.292501,-1.4775 -3.292501,-3.29344 0,-1.81593 1.476563,-3.29437 3.292501,-3.29437 1.816875,0 3.294374,1.47844 3.294374,3.29437 0,1.81594 -1.477499,3.29344 -3.294374,3.29344 M 54.647291,30.11568 c -1.816874,0 -3.294374,-1.4775 -3.294374,-3.29344 0,-1.81593 1.4775,-3.29437 3.294374,-3.29437 1.815938,0 3.292501,1.47844 3.292501,3.29437 0,1.81594 -1.476563,3.29344 -3.292501,3.29344 m -7.474843,30.46375 c -1.816875,0 -3.294375,-1.4775 -3.294375,-3.29344 0,-1.81593 1.4775,-3.29437 3.294375,-3.29437 1.815937,0 3.293437,1.47844 3.293437,3.29437 0,1.81594 -1.4775,3.29344 -3.293437,3.29344 m -7.775,-30.46375 c -1.816875,0 -3.294375,-1.4775 -3.294375,-3.29344 0,-1.81593 1.4775,-3.29437 3.294375,-3.29437 1.815937,0 3.293437,1.47844 3.293437,3.29437 0,1.81594 -1.4775,3.29344 -3.293437,3.29344"
   inkscape:connector-curvature="0" /></svg>