<?xml version="1.0" encoding="UTF-8" standalone="no"?>
<svg
   xmlns:dc="http://purl.org/dc/elements/1.1/"
   xmlns:cc="http://creativecommons.org/ns#"
   xmlns:rdf="http://www.w3.org/1999/02/22-rdf-syntax-ns#"
   xmlns:svg="http://www.w3.org/2000/svg"
   xmlns="http://www.w3.org/2000/svg"
   xmlns:sodipodi="http://sodipodi.sourceforge.net/DTD/sodipodi-0.dtd"
   xmlns:inkscape="http://www.inkscape.org/namespaces/inkscape"
   xml:space="preserve"
   height="53.015049"
   width="299.97"
   version="1.1"
   id="svg2"
   inkscape:version="0.47 r22583"
   sodipodi:docname="template3.svg"
   inkscape:export-filename="/home/prusnak/work/scm/laserdisplay/svglaser/templates/template3.svg.png"
   inkscape:export-xdpi="200"
   inkscape:export-ydpi="200"><metadata
   id="metadata78"><rdf:RDF><cc:Work
       rdf:about=""><dc:format>image/svg+xml</dc:format><dc:type
         rdf:resource="http://purl.org/dc/dcmitype/StillImage" /><dc:title /></cc:Work></rdf:RDF></metadata><sodipodi:namedview
   pagecolor="#ffffff"
   bordercolor="#666666"
   borderopacity="1"
   objecttolerance="10"
   gridtolerance="10"
   guidetolerance="10"
   inkscape:pageopacity="0"
   inkscape:pageshadow="2"
   inkscape:window-width="1280"
   inkscape:window-height="949"
   id="namedview76"
   showgrid="false"
   inkscape:zoom="2"
   inkscape:cx="112.78935"
   inkscape:cy="-1.586464"
   inkscape:window-x="0"
   inkscape:window-y="25"
   inkscape:window-maximized="1"
   inkscape:current-layer="svg2"
   inkscape:snap-bbox="true"
   inkscape:snap-global="true"
   fit-margin-top="0"
   fit-margin-left="0"
   fit-margin-right="0"
   fit-margin-bottom="0" />
<defs
   id="defs4"><inkscape:perspective
   sodipodi:type="inkscape:persp3d"
   inkscape:vp_x="0 : 48 : 1"
   inkscape:vp_y="0 : 1000 : 0"
   inkscape:vp_z="400 : 48 : 1"
   inkscape:persp3d-origin="200 : 32 : 1"
   id="perspective80" />



































</defs>
<path
   id="path20"
   style="fill:none;stroke:#000000;stroke-opacity:1"
   d="m 137.17375,22.45755 c 0,-1.815 5.24,-4.345 13.73375,-4.345 3.94875,0 7.73,0.59 10.37875,1.62 2.085,0.81125 3.32875,1.83 3.32875,2.725 0,9.0725 0.0188,30.05375 0.0188,30.05375 l 5.87245,-0.0037 c 0,-0.0012 -0.0175,-20.97875 -0.0175,-30.05 0,-2.035 -0.9175,-5.805 -7.0725,-8.2 -3.35125,-1.3025 -7.7925,-2.01875 -12.50875,-2.01875 -4.71625,0 -9.15875,0.71625 -12.50875,2.01875 -1.7975,0.7 -3.16375,1.50625 -4.175,2.3625 -1.01,-0.8475 -2.3675,-1.66875 -4.15,-2.3625 -3.34875,-1.3025 -7.79125,-2.01875 -12.50875,-2.01875 -4.715,0 -9.15625,0.71625 -12.50625,2.01875 -6.15625,2.395 -7.075,6.165 -7.075,8.2 0,9.8775 -0.0163,30.04875 -0.0163,30.04875 l 5.87375,0.005 c 0,0 0.0175,-20.17375 0.0175,-30.05375 0,-1.815 5.215,-4.345 13.70625,-4.345 3.94875,0 7.73125,0.59 10.38,1.62 2.08375,0.81125 3.32875,1.83 3.32875,2.725 0,9.0725 0.0175,30.0575 0.0175,30.0575 l 5.87375,-0.005 c 0,0 0.009,-20.98125 0.009,-30.0525 m -43.5627,-4.05005 c -1.0075,-1.47125 -2.7675,-2.98 -5.79125,-4.15625 -3.35,-1.3025 -7.79375,-2.02 -12.50875,-2.02 -4.715,0 -9.15875,0.7175 -12.5075,2.02 -6.155,2.39375 -7.07375,6.16375 -7.07375,8.19875 0,9.87875 -0.0175,30.04875 -0.0175,30.04875 l 5.87375,0.005 c 0,0 0.0175,-20.17375 0.0175,-30.05375 0,-1.81375 5.21375,-4.345 13.7075,-4.345 3.9475,0 7.73,0.59 10.37875,1.62125 1.58875,0.6175 2.6875,1.355 3.1225,2.0675 l 4.79875,-3.38625 z m 86.2125,34.1 5.874,0 0,-52.0075 -5.874,0 0,52.0075 z m 24.45,-33.325 c -0.89625,0 -1.91375,1.24375 -2.725,3.32875 -1.03,2.64875 -1.62125,6.43125 -1.62125,10.37875 0,8.4925 2.53125,13.7075 4.34625,13.7075 7.19625,0 24.94,0.0225 31.975,0.03125 l 0,-27.44625 -31.975,0 z m 37.84875,33.32875 -2.94,-0.0038 c 0,0 -25.83625,-0.035 -34.90875,-0.035 -2.035,0 -5.80625,-0.91875 -8.2,-7.07375 -1.3025,-3.35125 -2.02,-7.7925 -2.02,-12.50875 0,-4.715 0.7175,-9.1575 2.02,-12.5075 2.39375,-6.155 6.165,-7.075 8.2,-7.075 l 34.9125,0 2.91979,0.0058 0.0165,39.198 z m 49.85125,-9.24125 c -0.80875,2.085 -1.82875,3.32875 -2.7225,3.32875 -7.1975,0 -24.94125,0.0225 -31.97625,0.03125 l 0,-27.4475 31.97625,0.0012 c 1.81375,0 4.345,5.215 4.345,13.7075 0,3.94625 -0.5925,7.73 -1.6225,10.37875 M 297.45,20.38375 c -2.39375,-6.155 -6.165,-7.075 -8.19875,-7.075 l -31.97625,-0.0025 0,-12.80625 -5.87375,0 0,52.0125 2.94125,-0.0037 c 0,0 25.83625,-0.03625 34.90875,-0.03625 2.03375,0 5.805,-0.9175 8.19875,-7.0725 1.30375,-3.35125 2.02,-7.7925 2.02,-12.50875 0,-4.715 -0.71625,-9.1575 -2.02,-12.5075 M 41.07375,43.27005 c -0.80875,2.085 -1.82875,3.32875 -2.725,3.32875 -7.195,0 -24.94,0.0225 -31.97375,0.03125 l 0,-27.4475 31.97375,0.0012 c 1.815,0 4.34625,5.215 4.34625,13.7075 0,3.94625 -0.5925,7.73 -1.62125,10.37875 m 5.475,-22.88625 c -2.39375,-6.155 -6.16375,-7.075 -8.2,-7.075 L 6.375,13.30625 6.375,0.5 0.5,0.5 l 0,52.0125 2.9425,-0.0037 c 0,0 25.835,-0.03625 34.90625,-0.03625 2.03625,0 5.80625,-0.9175 8.2,-7.0725 1.30375,-3.35125 2.02,-7.7925 2.02,-12.50875 0,-4.715 -0.71625,-9.1575 -2.02,-12.5075" />
</svg>