<?xml version="1.0" encoding="UTF-8" standalone="no"?>
<!-- Created with Inkscape (http://www.inkscape.org/) -->

<svg
   xmlns:dc="http://purl.org/dc/elements/1.1/"
   xmlns:cc="http://creativecommons.org/ns#"
   xmlns:rdf="http://www.w3.org/1999/02/22-rdf-syntax-ns#"
   xmlns:svg="http://www.w3.org/2000/svg"
   xmlns="http://www.w3.org/2000/svg"
   xmlns:sodipodi="http://sodipodi.sourceforge.net/DTD/sodipodi-0.dtd"
   xmlns:inkscape="http://www.inkscape.org/namespaces/inkscape"
   id="svg2"
   sodipodi:version="0.32"
   inkscape:version="0.48.0 r9654"
   width="197.686"
   height="137.91438"
   version="1.0"
   sodipodi:docname="ccc.svg"
   inkscape:output_extension="org.inkscape.output.svg.inkscape"
   inkscape:export-filename="/home/prusnak/work/scm/laserdisplay/svglaser/templates/template5.svg.png"
   inkscape:export-xdpi="200"
   inkscape:export-ydpi="200">
  <metadata
     id="metadata7">
    <rdf:RDF>
      <cc:Work
         rdf:about="">
        <dc:format>image/svg+xml</dc:format>
        <dc:type
           rdf:resource="http://purl.org/dc/dcmitype/StillImage" />
        <dc:title />
      </cc:Work>
    </rdf:RDF>
  </metadata>
  <defs
     id="defs5">
    <inkscape:perspective
       sodipodi:type="inkscape:persp3d"
       inkscape:vp_x="0 : 71.827408 : 1"
       inkscape:vp_y="0 : 1000 : 0"
       inkscape:vp_z="200.01534 : 71.827408 : 1"
       inkscape:persp3d-origin="100.00767 : 47.884939 : 1"
       id="perspective2856" />
  </defs>
  <sodipodi:namedview
     inkscape:window-height="689"
     inkscape:window-width="1024"
     inkscape:pageshadow="2"
     inkscape:pageopacity="0.0"
     guidetolerance="10.0"
     gridtolerance="10.0"
     objecttolerance="10.0"
     borderopacity="1.0"
     bordercolor="#666666"
     pagecolor="#ffffff"
     id="base"
     width="930px"
     height="676.29px"
     inkscape:zoom="1.0373722"
     inkscape:cx="173.48535"
     inkscape:cy="88.47979"
     inkscape:window-x="0"
     inkscape:window-y="25"
     inkscape:current-layer="svg2"
     showgrid="false"
     inkscape:window-maximized="1"
     fit-margin-top="0"
     fit-margin-left="0"
     fit-margin-right="0"
     fit-margin-bottom="0" />
  <path
     id="path3018"
     style="fill:none;stroke:#000000;stroke-width:1.00000012;stroke-linecap:butt;stroke-linejoin:miter;stroke-opacity:1"
     d="m 169.24005,37.346227 c 0,0 -0.49412,2.23131 -1.14472,3.13292 -1.4554,2.0169 -3.72305,3.34016 -5.84409,4.63912 -3.01195,1.84457 -6.27266,3.33183 -9.63974,4.39814 -2.49335,0.7896 -5.10621,1.21981 -7.71181,1.44596 -3.28148,0.28481 -6.6301,0.41115 -9.88073,-0.1205 -0.64558,-0.10559 -1.8677,-0.60248 -1.8677,-0.60248 m 3.13291,9.3385 c 0,0 7.1114,-0.179 10.60372,-0.78323 2.60688,-0.45104 5.19587,-1.12444 7.65156,-2.1087 2.794,-1.11986 5.56064,-2.45056 7.95278,-4.27763 1.76111,-1.3451 3.3665,-2.96489 4.57888,-4.81987 1.04886,-1.60479 2.39668,-3.39205 2.22919,-5.30186 -0.0647,-0.73806 -1.20497,-1.8677 -1.20497,-1.8677 m 4.51862,6.14533 c 0,0 -1.60588,4.70443 -2.89192,6.80807 -1.32376,2.16533 -3.08021,4.05487 -4.88012,5.8441 -2.21572,2.20256 -4.52453,4.40183 -7.2298,5.96459 -2.28363,1.31919 -4.86117,2.09624 -7.41056,2.77142 -1.8288,0.48434 -3.71359,0.81011 -5.60311,0.90373 -1.64782,0.0816 -4.94036,-0.30124 -4.94036,-0.30124 m 34.94408,-14.51987 c 0,0 -2.48392,6.64332 -4.33789,9.63975 -1.71965,2.77933 -3.73333,5.45357 -6.20558,7.59129 -1.94874,1.68506 -4.22893,3.0358 -6.62732,3.9764 -2.27344,0.89159 -7.16956,1.50621 -7.16956,1.50621 m 7.29005,-53.38007 c 0,0 2.54252,3.86611 3.49441,5.96459 0.91822,2.02423 1.44208,4.20563 2.10869,6.32608 0.40366,1.28402 1.14472,3.87229 1.14472,3.87229 M 146.5264,17.765507 c 0,0 3.80109,5.00248 5.48261,7.65154 1.78757,2.81613 3.35264,5.77076 4.88012,8.73602 0.94619,1.8368 2.01888,3.63595 2.65093,5.6031 0.27474,0.85507 0.48199,2.65093 0.48199,2.65093 m -21.68943,-24.34035 c 0,0 4.49813,4.16744 6.38633,6.56707 1.58495,2.01425 2.78888,4.30266 4.09689,6.50683 1.40859,2.37364 3.02912,4.66014 4.03665,7.2298 0.777,1.98171 1.50621,6.20559 1.50621,6.20559 m -90.252118,19.94221 c 0,0 -0.625894,-8.23376 0.180745,-12.23042 0.244211,-1.21 0.58777,-2.49234 1.385713,-3.43416 0.821566,-0.9697 2.063464,-1.54175 3.253413,-1.98819 2.231863,-0.83735 4.677567,-0.96338 7.049063,-1.20497 4.737814,-0.48266 9.517657,-0.37875 14.278873,-0.48199 2.088216,-0.0453 4.177838,-0.006 6.265834,-0.0602 2.666643,-0.0696 5.328447,-0.284 7.995387,-0.34081 5.44121,-0.11592 10.88488,0.004 16.32733,0 3.62322,-0.002 7.25283,-0.22964 10.86966,-0.0146 1.54649,0.0919 3.41994,-0.43 4.61418,0.55685 0.81272,0.67159 0.96397,3.01242 0.96397,3.01242 M 37.175544,64.759247 c 0,0 9.268035,-13.76355 15.001853,-19.70123 1.189645,-1.23194 2.535117,-2.32839 3.976395,-3.25341 1.844337,-1.1837 3.828554,-2.1892 5.904343,-2.89192 2.133896,-0.7224 4.384233,-1.11593 6.627325,-1.32547 5.399186,-0.50435 10.844837,0.11016 16.267069,0.18075 5.382333,0.0701 10.764345,0.16292 16.146571,0.24099 4.27761,0.062 8.5555,0.1063 12.83291,0.18075 3.87624,0.0675 7.75797,0.0109 11.62795,0.24099 2.45758,0.14611 4.95018,0.17482 7.3503,0.72298 1.48036,0.3381 2.99235,0.75788 4.27764,1.56646 0.90157,0.56719 1.74911,1.31127 2.28944,2.22919 0.97126,1.64998 1.50621,5.54285 1.50621,5.54285 M 40.187965,6.0773169 c 0,0 7.034102,9.7929301 10.844712,14.4596101 1.664548,2.0385 3.391688,4.03245 5.241611,5.90434 0.839434,0.84941 1.709648,1.67501 2.65093,2.40994 0.856104,0.66842 1.68164,1.46139 2.711179,1.80745 1.888039,0.63463 3.974123,0.28745 5.964592,0.36149 4.355372,0.162 8.715727,0.13817 13.073904,0.18075 3.51438,0.0343 7.028997,0.0374 10.54347,0.0602 5.502719,0.0358 11.005627,0.0546 16.508067,0.12049 4.82019,0.0578 9.64723,-0.0392 14.45962,0.241 2.82083,0.16426 5.63671,0.44985 8.43477,0.84347 1.77875,0.25023 3.57661,0.46392 5.30186,0.96398 1.85184,0.53674 3.96323,0.84209 5.36211,2.16894 1.47972,1.40351 1.9153,3.61846 2.59068,5.54285 0.67747,1.93035 1.44596,5.96459 1.44596,5.96459 M 64.588569,5.3543369 c 0,0 -0.235593,3.01029 -0.240994,4.51863 -0.0047,1.3067601 0.08167,2.6131301 0.180745,3.9161401 0.101061,1.32906 -0.05682,2.73237 0.421739,3.9764 0.392287,1.01977 1.164694,1.86909 1.927948,2.65092 0.600464,0.61509 1.268358,1.20543 2.048446,1.56646 1.715915,0.79414 3.665766,0.9779 5.542854,1.20497 4.479304,0.54186 9.019249,0.32386 13.531052,0.36149 4.004818,0.0334 8.009311,-0.11813 12.014271,-0.1205 2.26945,-0.001 4.53898,0.0204 6.80807,0.0602 2.28988,0.0403 4.58022,0.082 6.86832,0.18075 3.01503,0.13009 6.04161,0.177 9.03726,0.54224 1.86509,0.22739 3.6958,0.67978 5.54286,1.02422 2.86725,0.53468 5.81113,0.76133 8.59912,1.61814 2.00611,0.61652 4.23588,1.08315 5.77351,2.51153 1.29656,1.20445 1.68563,3.11311 2.47018,4.69938 0.27485,0.55571 0.55502,1.11051 0.78323,1.68695 0.94211,2.37965 1.73242,4.822 2.40993,7.29005 0.27217,0.99148 0.66274,3.01242 0.66274,3.01242 m 48.21615,38.83549 c 0,0 -2.87763,0.69601 -4.34541,0.85204 -1.55358,0.16514 -3.12444,0.12669 -4.68622,0.0852 -1.59397,-0.0423 -3.22271,0.0386 -4.77143,-0.34082 -2.4957,-0.61147 -7.07195,-3.06735 -7.07195,-3.06735 l 0,0 0,0 m -13.55956,32.207153 c 0,0 6.29987,-2.42021 8.87334,-4.51582 1.41016,-1.14831 2.53909,-2.66272 3.40816,-4.2602 0.81548,-1.49898 1.22845,-3.19544 1.61888,-4.85663 0.46591,-1.982383 0.70968,-4.018073 0.85204,-6.049493 0.17471,-2.49321 0.31541,-5.01862 0,-7.49796 -0.21473,-1.68787 -0.65294,-3.35936 -1.27806,-4.94184 -0.65373,-1.6549 -1.65973,-3.14917 -2.55613,-4.68622 -0.75834,-1.3003 -1.57051,-2.56877 -2.38571,-3.83419 -0.61004,-0.94694 -1.87449,-2.81173 -1.87449,-2.81173 m -12.8957,44.245393 -14.1445,1.15506 0,0 m 5.94874,-11.94045 c -0.37127,-1.4045 -0.5623,-4.54101 -0.0182,-6.710763 0.77581,-3.09378 2.94178,-5.66276 4.53793,-8.42422 1.66442,-2.87955 3.05201,-5.98889 5.25002,-8.48506 0.67334,-0.76468 1.4272,-1.5502 2.37493,-1.92424 0.5037,-0.1988 1.1625,-0.404 1.62047,-0.11503 0.44687,0.28196 0.43644,0.9668 0.57935,1.4755 0.91428,3.25442 1.73211,6.60846 1.75165,9.98881 0.0363,6.28794 -2.16872,12.390103 -3.04328,18.617033 -0.57252,4.07638 -1.6025,8.15144 -1.442,12.2647 0.12423,3.18379 0.4743,6.50468 1.85247,9.37742 1.26594,2.6388 2.89329,5.27731 5.6536,6.71787 M 90.935035,17.871177 c 0,0 -0.108033,-3.32704 -0.507326,-6.39642 C 89.580618,4.9630469 88.557644,3.6451069 83.635919,2.4821769 78.138448,1.1832169 69.948493,0.48523687 53.312262,0.50023687 c -16.167688,0.0146 -28.65509,0.51211003 -41.184614,1.64088003 -3.0963069,0.27896 -3.9812072,0.44598 -4.941915,0.93281 -2.4894825,1.26152 -4.008307,4.33644 -5.1477375,8.8259501 -0.8730716,3.44002 -1.17736316,5.57061 -1.43604655,16.61308 -0.37191332,15.876 0.23238028,23.52115 2.49858935,31.74413 1.3694974,4.96923 2.2093601,6.95432 5.1651875,8.3961 3.2868042,1.60322 2.0848192,1.29049 34.7008302,1.28051 28.269323,-0.009 37.604222,-0.18572 41.272978,-0.78282 3.41411,-0.55566 5.370892,-4.09646 6.494312,-11.75148 0.524051,-3.5709 0.757242,-4.8943 0.729269,-5.85722"
     inkscape:connector-curvature="0" />
</svg>
