<?xml version="1.0" encoding="UTF-8" standalone="no"?>
<!-- Created with Inkscape (http://www.inkscape.org/) -->

<svg
   xmlns:dc="http://purl.org/dc/elements/1.1/"
   xmlns:cc="http://creativecommons.org/ns#"
   xmlns:rdf="http://www.w3.org/1999/02/22-rdf-syntax-ns#"
   xmlns:svg="http://www.w3.org/2000/svg"
   xmlns="http://www.w3.org/2000/svg"
   xmlns:sodipodi="http://sodipodi.sourceforge.net/DTD/sodipodi-0.dtd"
   xmlns:inkscape="http://www.inkscape.org/namespaces/inkscape"
   id="svg2"
   sodipodi:version="0.32"
   inkscape:version="0.48.0 r9654"
   width="197.72345"
   height="137.86996"
   version="1.0"
   sodipodi:docname="template5.svg"
   inkscape:output_extension="org.inkscape.output.svg.inkscape"
   inkscape:export-filename="/home/prusnak/work/scm/laserdisplay/svglaser/templates/template5.svg.png"
   inkscape:export-xdpi="200"
   inkscape:export-ydpi="200">
  <metadata
     id="metadata7">
    <rdf:RDF>
      <cc:Work
         rdf:about="">
        <dc:format>image/svg+xml</dc:format>
        <dc:type
           rdf:resource="http://purl.org/dc/dcmitype/StillImage" />
        <dc:title></dc:title>
      </cc:Work>
    </rdf:RDF>
  </metadata>
  <defs
     id="defs5">
    <inkscape:perspective
       sodipodi:type="inkscape:persp3d"
       inkscape:vp_x="0 : 71.827408 : 1"
       inkscape:vp_y="0 : 1000 : 0"
       inkscape:vp_z="200.01534 : 71.827408 : 1"
       inkscape:persp3d-origin="100.00767 : 47.884939 : 1"
       id="perspective2856" />
  </defs>
  <sodipodi:namedview
     inkscape:window-height="930"
     inkscape:window-width="1280"
     inkscape:pageshadow="2"
     inkscape:pageopacity="0.0"
     guidetolerance="10.0"
     gridtolerance="10.0"
     objecttolerance="10.0"
     borderopacity="1.0"
     bordercolor="#666666"
     pagecolor="#ffffff"
     id="base"
     width="930px"
     height="676.29px"
     inkscape:zoom="4.1494888"
     inkscape:cx="88.403112"
     inkscape:cy="67.834765"
     inkscape:window-x="0"
     inkscape:window-y="25"
     inkscape:current-layer="svg2"
     showgrid="false"
     inkscape:window-maximized="1"
     fit-margin-top="0"
     fit-margin-left="0"
     fit-margin-right="0"
     fit-margin-bottom="0" />
  <path
     id="path3018"
     style="fill:none;stroke:#000000;stroke-width:1;stroke-linecap:butt;stroke-linejoin:miter;stroke-opacity:1"
     d="m 169.27752,37.383746 c 0,0 -0.49412,2.23131 -1.14472,3.132916 -1.4554,2.016905 -3.72305,3.340167 -5.84409,4.639125 -3.01195,1.844564 -6.27266,3.331827 -9.63974,4.398133 -2.49335,0.789609 -5.1062,1.219812 -7.7118,1.445961 -3.28148,0.284812 -6.6301,0.411156 -9.88073,-0.120497 -0.64558,-0.105587 -1.8677,-0.602484 -1.8677,-0.602484 m 3.13291,9.3385 c 0,0 7.1114,-0.178994 10.60372,-0.783229 2.60687,-0.451037 5.19586,-1.124433 7.65155,-2.108694 2.794,-1.119858 5.56064,-2.450565 7.95278,-4.277635 1.76111,-1.345101 3.3665,-2.964892 4.57888,-4.819871 1.04886,-1.604786 2.39668,-3.392044 2.22919,-5.301858 -0.0647,-0.738057 -1.20497,-1.8677 -1.20497,-1.8677 m 4.51862,6.145336 c 0,0 -1.60588,4.704426 -2.89192,6.808068 -1.32376,2.165332 -3.08021,4.054866 -4.88012,5.844093 -2.21572,2.202569 -4.52453,4.401832 -7.2298,5.96459 -2.28363,1.31919 -4.86117,2.096246 -7.41056,2.771426 -1.82879,0.484336 -3.71358,0.810106 -5.6031,0.903726 -1.64782,0.08164 -4.94036,-0.301242 -4.94036,-0.301242 m 34.94407,-14.519861 c 0,0 -2.48392,6.643316 -4.33789,9.639741 -1.71965,2.779334 -3.73333,5.453572 -6.20558,7.591297 -1.94874,1.685054 -4.22893,3.035794 -6.62732,3.976393 -2.27344,0.891596 -7.16956,1.50621 -7.16956,1.50621 m 7.29005,-53.38007 c 0,0 2.54252,3.866116 3.49441,5.96459 0.91822,2.024236 1.44208,4.205637 2.10869,6.326081 0.40366,1.284026 1.14472,3.872289 1.14472,3.872289 M 146.56388,17.80302 c 0,0 3.80108,5.002488 5.4826,7.651545 1.78757,2.816125 3.35264,5.770758 4.88012,8.736016 0.94619,1.836807 2.01888,3.635958 2.65093,5.6031 0.27474,0.855077 0.48199,2.650929 0.48199,2.650929 M 138.3701,18.104262 c 0,0 4.49813,4.167443 6.38633,6.567074 1.58495,2.014246 2.78888,4.302655 4.09689,6.506826 1.40858,2.373646 3.02911,4.660143 4.03664,7.229806 0.777,1.981705 1.50621,6.205584 1.50621,6.205584 M 64.144082,64.555767 c 0,0 -0.625893,-8.233758 0.180745,-12.230422 0.244211,-1.209999 0.58777,-2.492338 1.385713,-3.434158 0.821566,-0.969701 2.063463,-1.541754 3.253412,-1.988197 2.231862,-0.837345 4.677566,-0.963375 7.049061,-1.204967 4.737812,-0.482657 9.517654,-0.378753 14.278868,-0.481987 2.088216,-0.04528 4.177837,-0.0057 6.265832,-0.06025 2.666643,-0.06964 5.328447,-0.284001 7.995387,-0.340816 5.44121,-0.115918 10.88488,0.0037 16.32732,0 3.62322,-0.0024 7.25283,-0.229634 10.86966,-0.01462 1.54649,0.09194 3.41994,-0.429997 4.61418,0.556853 0.81272,0.671587 0.96397,3.01242 0.96397,3.01242 M 37.213053,64.796761 c 0,0 9.268032,-13.763548 15.001848,-19.701222 1.189645,-1.231941 2.535116,-2.328398 3.976394,-3.253413 1.844336,-1.183698 3.828553,-2.189198 5.904341,-2.891922 2.133895,-0.722395 4.384232,-1.115932 6.627323,-1.325465 5.399184,-0.504353 10.844834,0.110157 16.267064,0.180745 5.382331,0.07007 10.764342,0.162925 16.146567,0.240994 4.27761,0.06205 8.5555,0.106298 12.83291,0.180745 3.87623,0.06747 7.75796,0.01091 11.62794,0.240993 2.45758,0.146113 4.95018,0.174819 7.3503,0.722981 1.48036,0.338098 2.99235,0.757873 4.27764,1.566458 0.90157,0.567187 1.74911,1.311271 2.28944,2.229191 0.97126,1.649976 1.50621,5.542851 1.50621,5.542851 M 40.225473,6.1148334 c 0,0 7.0341,9.7929286 10.844709,14.4596126 1.664547,2.038498 3.391687,4.03245 5.241609,5.904342 0.839434,0.849403 1.709647,1.675004 2.650929,2.409935 0.856104,0.668426 1.68164,1.461391 2.711178,1.807452 1.888039,0.63463 3.974122,0.287454 5.96459,0.36149 4.355371,0.161999 8.715725,0.138168 13.0739,0.180745 3.514379,0.03433 7.028995,0.03738 10.543467,0.06025 5.502717,0.0358 11.005625,0.05456 16.508065,0.120496 4.82019,0.05776 9.64722,-0.03924 14.45961,0.240994 2.82083,0.164264 5.63671,0.449851 8.43477,0.843477 1.77875,0.250231 3.57661,0.463919 5.30186,0.963974 1.85184,0.536745 3.96323,0.842098 5.36211,2.168942 1.47972,1.403516 1.9153,3.61846 2.59068,5.542852 0.67747,1.930354 1.44596,5.96459 1.44596,5.96459 M 64.626069,5.3918528 c 0,0 -0.235593,3.0102881 -0.240994,4.5186291 -0.0047,1.3067631 0.08167,2.6131351 0.180745,3.9161451 0.101061,1.329062 -0.05682,2.732365 0.421739,3.976393 0.392287,1.019772 1.164694,1.869094 1.927948,2.650929 0.600463,0.615081 1.268357,1.205427 2.048445,1.566458 1.715914,0.794138 3.665765,0.977897 5.542852,1.204968 4.479303,0.541861 9.019246,0.32386 13.531048,0.36149 4.004817,0.0334 8.009309,-0.118134 12.014268,-0.120496 2.26945,-0.0013 4.53898,0.02036 6.80807,0.06025 2.28988,0.04026 4.58022,0.08202 6.86832,0.180745 3.01503,0.130086 6.0416,0.176996 9.03725,0.542236 1.86509,0.227398 3.6958,0.679786 5.54286,1.024222 2.86725,0.534681 5.81113,0.761336 8.59912,1.618143 2.00611,0.616519 4.23588,1.083147 5.77351,2.511531 1.29656,1.204446 1.68563,3.113106 2.47018,4.699374 0.27485,0.555716 0.55502,1.110516 0.78323,1.686955 0.94211,2.379648 1.73242,4.822002 2.40993,7.290054 0.27217,0.991475 0.66274,3.01242 0.66274,3.01242 m 48.21613,38.835482 c 0,0 -2.87763,0.696018 -4.34541,0.852041 -1.55358,0.165142 -3.12444,0.126697 -4.68622,0.0852 -1.59397,-0.04235 -3.22271,0.03864 -4.77143,-0.340816 -2.49569,-0.611467 -7.07194,-3.067348 -7.07194,-3.067348 l 0,0 0,0 M 162.7889,114.664 c 0,0 6.29987,-2.42021 8.87334,-4.51582 1.41016,-1.14831 2.53909,-2.66272 3.40816,-4.2602 0.81548,-1.49898 1.22845,-3.19544 1.61888,-4.85663 0.46591,-1.98238 0.70968,-4.018069 0.85204,-6.049487 0.17471,-2.493206 0.31541,-5.018623 0,-7.49796 -0.21473,-1.687872 -0.65294,-3.359356 -1.27806,-4.941836 -0.65373,-1.6549 -1.65973,-3.149177 -2.55613,-4.686225 -0.75834,-1.300299 -1.57051,-2.568767 -2.38571,-3.834184 -0.61004,-0.94694 -1.87449,-2.811735 -1.87449,-2.811735 m -12.8957,44.245387 -14.14449,1.15506 0,0 m 5.94874,-11.94045 c -0.37127,-1.4045 -0.5623,-4.54101 -0.0182,-6.710757 0.77581,-3.093779 2.94177,-5.662761 4.53792,-8.424217 1.66442,-2.879554 3.05201,-5.988893 5.25002,-8.485065 0.67334,-0.764675 1.4272,-1.550193 2.37493,-1.924239 0.5037,-0.198799 1.1625,-0.403999 1.62047,-0.115029 0.44687,0.281965 0.43644,0.966805 0.57935,1.4755 0.91428,3.254426 1.73211,6.608458 1.75165,9.988814 0.0363,6.287937 -2.16872,12.390093 -3.04328,18.617023 -0.57252,4.07638 -1.6025,8.15144 -1.442,12.2647 0.12423,3.18379 0.4743,6.50468 1.85247,9.37742 1.26594,2.6388 2.89329,5.27731 5.6536,6.71787 M 90.972527,17.908691 c 0,0 -0.108033,-3.327036 -0.507326,-6.396412 C 89.618111,5.0005619 88.595137,3.6826252 83.673413,2.5196977 78.175944,1.2207343 69.985992,0.52275081 53.349766,0.53775841 37.182083,0.55237901 24.694686,1.0498658 12.165166,2.1786392 9.0688596,2.4575913 8.1839596,2.6246099 7.2232521,3.111443 4.7337704,4.3729627 3.2149465,7.4478804 2.0755163,11.937399 1.202445,15.377417 0.89815352,17.508007 0.63947022,28.55047 c -0.3719132,15.876006 0.2323802,23.521153 2.49858858,31.744133 1.3694969,4.969235 2.2093593,6.95432 5.1651858,8.396103 3.2868034,1.603222 2.0848184,1.290493 34.7008184,1.280506 28.269314,-0.0086 37.60421,-0.185714 41.272965,-0.782814 3.414109,-0.555668 5.370891,-4.096461 6.49431,-11.751486 0.524051,-3.570894 0.757242,-4.894298 0.729269,-5.857219" />
</svg>
